<svg xmlns="http://www.w3.org/2000/svg" height="800" width="1200" viewBox="-153.6 -69.1855 1331.2 415.113"><path fill="#d81f26" d="M 140.803 258.904 C 125.399 261.609 109.724 262.42 93.509 264.58 L 44.051 119.724 V 270.797 C 28.647 272.418 14.594 274.58 0 276.742 V 0 H 41.08 L 97.292 157.021 V 0 H 140.803 Z M 302 117 V 145 V 210 V 245.929 L 182.692 255.39 V 0 H 302.416 V 42 Z M 463.218 43.242 H 418.356 V 242.15 C 403.762 242.15 389.168 242.15 375.117 242.689 V 43.242 H 330.255 V 0 H 463.22 Z M 533.484 98.374 H 592.671 V 141.614 H 533.484 V 239.718 H 491.051 V 0 H 611.859 V 43.241 H 533.484 Z M 682.125 201.881 C 706.719 202.42 731.581 204.315 755.635 205.664 V 248.365 C 716.989 245.931 678.342 243.502 638.885 242.689 V 0 H 682.125 Z M 792.119 251.338 C 805.902 252.15 820.496 252.961 834.549 254.58 V 0 H 792.119 Z M 1024 0 L 969.137 131.615 L 1024 276.742 C 1007.783 274.58 991.568 271.607 975.352 268.904 L 944.274 188.91 L 912.657 262.42 C 896.979 259.715 881.845 258.904 866.173 256.742 L 921.845 129.992 L 871.576 0 H 918.058 L 946.435 72.699 L 976.705 0 Z"/></svg>