<svg xmlns="http://www.w3.org/2000/svg" viewBox="0 0 407 407">
  <defs>
    <linearGradient id="a">
      <stop offset="0" stop-color="#b01"/>
      <stop offset="1" stop-color="#e01" />
    </linearGradient>
  </defs>
  <g transform="translate(12 7)">
    <rect width="407.3" fill="url(#a)" height="407.3" x="-13" y="-7" ry="37.5" />
    <g fill-rule="evenodd">
      <path fill="#111"
        d="M213 59v122l-5-14-7 136 10 27 8 1a627 627 0 0 1 48 4V59h-54zm-98 0v276l11-1a798 798 0 0 1 43-3l1-59v-58l4 12 2 4 6-136-2-6-10-28-1-1h-54z" />
      <path fill="#222"
        d="m115 59 55 155 4 12 37 104 8 1a627 627 0 0 1 48 4l-54-154-5-14a129681 129681 0 0 1-38-107l-1-1h-54z" />
    </g>
  </g>
</svg>